<svg width="715" height="340" viewBox="0 0 715 340" fill="none" xmlns="http://www.w3.org/2000/svg">
<mask id="mask0" mask-type="alpha" maskUnits="userSpaceOnUse" x="325" y="141" width="66" height="58">
<path d="M382.637 169.937C382.637 180.964 372.269 191.369 357.558 191.369C342.847 191.369 332.478 180.964 332.478 169.937C332.478 158.911 342.847 148.506 357.558 148.506C372.269 148.506 382.637 158.911 382.637 169.937Z" stroke="black" stroke-width="14.9525"/>
</mask>
<g mask="url(#mask0)">
<rect x="311.567" y="140.032" width="98.184" height="29.905" fill="black"/>
</g>
<path d="M170 10.6461L199.899 43.463L202.995 46.8608L207.375 45.4661L249.677 31.9955L259.162 75.3654L260.144 79.8558L264.635 80.8379L308.004 90.3231L294.534 132.625L293.139 137.005L296.537 140.101L329.354 170L296.537 199.899L293.139 202.995L294.534 207.375L308.004 249.677L264.635 259.162L260.144 260.144L259.162 264.635L249.677 308.004L207.375 294.534L202.995 293.139L199.899 296.537L170 329.354L140.101 296.537L137.005 293.139L132.625 294.534L90.3231 308.004L80.8379 264.635L79.8558 260.144L75.3654 259.162L31.9955 249.677L45.4661 207.375L46.8608 202.995L43.463 199.899L10.6461 170L43.463 140.101L46.8608 137.005L45.4661 132.625L31.9955 90.3231L75.3654 80.8379L79.8558 79.8558L80.8379 75.3654L90.3231 31.9955L132.625 45.4661L137.005 46.8608L140.101 43.463L170 10.6461Z" stroke="black" stroke-width="14.34"/>
<path d="M545 10.6461L574.899 43.463L577.995 46.8608L582.375 45.4661L624.677 31.9955L634.162 75.3654L635.144 79.8558L639.635 80.8379L683.004 90.3231L669.534 132.625L668.139 137.005L671.537 140.101L704.354 170L671.537 199.899L668.139 202.995L669.534 207.375L683.004 249.677L639.635 259.162L635.144 260.144L634.162 264.635L624.677 308.004L582.375 294.534L577.995 293.139L574.899 296.537L545 329.354L515.101 296.537L512.005 293.139L507.625 294.534L465.323 308.004L455.838 264.635L454.856 260.144L450.365 259.162L406.996 249.677L420.466 207.375L421.861 202.995L418.463 199.899L385.646 170L418.463 140.101L421.861 137.005L420.466 132.625L406.995 90.3231L450.365 80.8379L454.856 79.8558L455.838 75.3654L465.323 31.9955L507.625 45.4661L512.005 46.8608L515.101 43.463L545 10.6461Z" stroke="black" stroke-width="14.34"/>
</svg>
