<svg width="673" height="340" viewBox="0 0 673 340" fill="none" xmlns="http://www.w3.org/2000/svg">
<mask id="mask0" mask-type="alpha" maskUnits="userSpaceOnUse" x="304" y="140" width="66" height="59">
<path d="M361.635 169.908C361.635 180.934 351.267 191.34 336.556 191.34C321.845 191.34 311.476 180.934 311.476 169.908C311.476 158.882 321.845 148.476 336.556 148.476C351.267 148.476 361.635 158.882 361.635 169.908Z" stroke="black" stroke-width="14.9525"/>
</mask>
<g mask="url(#mask0)">
<path d="M388.749 140.003H290.565V169.908H388.749V140.003Z" fill="#34D40C"/>
</g>
<path d="M99.635 48.1245L170 8.2417L240.365 48.1243L310.087 89.1209L310.73 170L310.087 250.879L240.365 291.875L170 331.758L99.6343 291.875L29.9129 250.879L29.27 170L29.9129 89.1209L99.635 48.1245Z" stroke="#34D40C" stroke-width="14.34"/>
<path d="M432.635 48.1245L503 8.2417L573.365 48.1243L643.087 89.1209L643.73 170L643.087 250.879L573.365 291.875L503 331.758L432.635 291.875L362.913 250.879L362.27 170L362.913 89.1209L432.635 48.1245Z" stroke="#34D40C" stroke-width="14.34"/>
</svg>
